<?xml version="1.0" encoding="UTF-8"?>
<!DOCTYPE svg PUBLIC "-//W3C//DTD SVG 1.1//EN" "http://www.w3.org/Graphics/SVG/1.1/DTD/svg11.dtd">
<svg xmlns="http://www.w3.org/2000/svg" version="1.1" width="1024px" height="1024px" style="shape-rendering:geometricPrecision; text-rendering:geometricPrecision; image-rendering:optimizeQuality; fill-rule:evenodd; clip-rule:evenodd" xmlns:xlink="http://www.w3.org/1999/xlink">
<g><path style="opacity:1" fill="#000000" d="M -0.5,-0.5 C 340.833,-0.5 682.167,-0.5 1023.5,-0.5C 1023.5,177.167 1023.5,354.833 1023.5,532.5C 1012.17,532.5 1000.83,532.5 989.5,532.5C 989.5,534.833 989.5,537.167 989.5,539.5C 994.227,539.93 998.56,541.43 1002.5,544C 1003.86,545.945 1004.7,548.112 1005,550.5C 1005.67,584.5 1005.67,618.5 1005,652.5C 974.5,612.667 944,572.833 913.5,533C 903.506,532.5 893.506,532.334 883.5,532.5C 883.5,535.167 883.5,537.833 883.5,540.5C 887.911,540.203 891.911,541.369 895.5,544C 896.863,545.945 897.697,548.112 898,550.5C 898.167,569.333 898.333,588.167 898.5,607C 898.637,627.541 898.137,648.041 897,668.5C 894.657,674.597 890.157,677.597 883.5,677.5C 883.5,680.167 883.5,682.833 883.5,685.5C 898.5,685.5 913.5,685.5 928.5,685.5C 928.5,682.833 928.5,680.167 928.5,677.5C 919.167,677.94 914.001,673.606 913,664.5C 912.333,631.5 912.333,598.5 913,565.5C 943.451,605.619 974.284,645.452 1005.5,685C 1010.15,685.499 1014.82,685.666 1019.5,685.5C 1019.33,640.165 1019.5,594.832 1020,549.5C 1020.7,547.416 1021.86,545.749 1023.5,544.5C 1023.5,704.167 1023.5,863.833 1023.5,1023.5C 682.167,1023.5 340.833,1023.5 -0.5,1023.5C -0.5,909.833 -0.5,796.167 -0.5,682.5C 3.57334,681.045 7.07334,678.712 10,675.5C 11.6417,666.792 13.475,658.125 15.5,649.5C 14.3477,647.331 12.5144,645.997 10,645.5C 6.7261,649.727 3.2261,653.727 -0.5,657.5C -0.5,626.167 -0.5,594.833 -0.5,563.5C 0.451145,564.919 0.784479,566.585 0.5,568.5C 3.83333,568.5 7.16667,568.5 10.5,568.5C 10.6665,558.494 10.4998,548.494 10,538.5C 7.01505,535.591 3.51505,533.591 -0.5,532.5C -0.5,354.833 -0.5,177.167 -0.5,-0.5 Z"/></g>
<g><path style="opacity:1" fill="#ae3641" d="M 607.5,15.5 C 602.167,15.5 596.833,15.5 591.5,15.5C 594.74,14.1529 598.24,13.4863 602,13.5C 604.295,13.5465 606.129,14.2132 607.5,15.5 Z"/></g>
<g><path style="opacity:1" fill="#d92427" d="M 591.5,15.5 C 596.833,15.5 602.167,15.5 607.5,15.5C 617.906,15.2792 627.572,17.7792 636.5,23C 620.415,26.6376 605.082,32.1376 590.5,39.5C 585.558,33.7916 581.225,27.625 577.5,21C 581.153,16.9422 585.82,15.1088 591.5,15.5 Z"/></g>
<g><path style="opacity:1" fill="#c53039" d="M 735.5,22.5 C 717.83,22.3334 700.164,22.5001 682.5,23C 675.206,24.4935 667.873,25.6602 660.5,26.5C 660.719,27.675 660.386,28.675 659.5,29.5C 655.563,28.0452 651.896,28.5452 648.5,31C 645.518,31.498 642.518,31.6646 639.5,31.5C 639.791,30.3509 640.624,29.6842 642,29.5C 672.859,21.0835 704.026,18.7502 735.5,22.5 Z"/></g>
<g><path style="opacity:1" fill="#da2025" d="M 735.5,22.5 C 746.647,22.5974 757.314,24.5974 767.5,28.5C 768.406,29.9649 769.739,30.9649 771.5,31.5C 772.452,33.0453 772.785,34.712 772.5,36.5C 769.833,42.1667 767.167,47.8333 764.5,53.5C 766.515,54.9238 768.848,55.5905 771.5,55.5C 771.495,59.5341 771.162,63.5341 770.5,67.5C 769.046,73.9172 766.546,79.9172 763,85.5C 743.339,116.159 719.172,142.659 690.5,165C 685.882,167.95 681.548,171.284 677.5,175C 675.527,175.495 673.527,175.662 671.5,175.5C 671.703,177.39 671.037,178.89 669.5,180C 640.808,199.015 610.141,214.015 577.5,225C 571.632,226.8 565.632,227.967 559.5,228.5C 558.666,227.252 557.333,226.585 555.5,226.5C 551.685,227.836 547.685,228.669 543.5,229C 544.5,229.333 545.5,229.667 546.5,230C 542.167,230.333 537.833,230.667 533.5,231C 533,231.5 532.5,232 532,232.5C 530.121,230.805 527.954,229.472 525.5,228.5C 522.685,230.235 519.685,230.735 516.5,230C 515.663,228.989 515.33,227.822 515.5,226.5C 514.167,226.5 512.833,226.5 511.5,226.5C 511.5,228.167 511.5,229.833 511.5,231.5C 506.167,231.5 500.833,231.5 495.5,231.5C 495.304,237.98 494.637,237.98 493.5,231.5C 493.403,229.055 494.07,226.889 495.5,225C 494.278,221.314 493.611,217.481 493.5,213.5C 493.302,208.606 493.969,203.94 495.5,199.5C 496.833,199.5 498.167,199.5 499.5,199.5C 499.5,196.833 499.5,194.167 499.5,191.5C 500.5,191.5 501.5,191.5 502.5,191.5C 502.616,188.14 502.949,184.807 503.5,181.5C 507.323,174.522 511.156,167.522 515,160.5C 539.819,126.439 569.652,97.7724 604.5,74.5C 610.373,70.3958 616.706,67.0624 623.5,64.5C 622.833,64.1667 622.167,63.8333 621.5,63.5C 619.666,64.7545 617.666,65.4211 615.5,65.5C 613.473,65.3379 611.473,65.5045 609.5,66C 608.027,66.7096 607.36,67.8762 607.5,69.5C 605.571,69.7692 603.905,69.2692 602.5,68C 603.308,67.6924 603.975,67.1924 604.5,66.5C 602.01,64.9172 599.343,63.9172 596.5,63.5C 596.592,59.9286 594.926,58.7619 591.5,60C 590.359,60.7412 590.359,61.5745 591.5,62.5C 587.074,62.9784 583.074,61.645 579.5,58.5C 581.029,56.8119 582.863,55.4786 585,54.5C 585.311,55.7425 584.811,56.7425 583.5,57.5C 584.833,58.5 586.167,59.5 587.5,60.5C 588.59,59.6086 588.59,58.6086 587.5,57.5C 589.909,54.6223 592.909,53.4556 596.5,54C 596.146,55.6255 596.146,57.4588 596.5,59.5C 598.226,59.8146 599.893,59.9813 601.5,60C 600.231,57.8615 600.231,55.6948 601.5,53.5C 602.396,54.5063 603.062,54.5063 603.5,53.5C 601.49,52.9347 599.824,51.9347 598.5,50.5C 599.37,48.3737 600.37,46.3737 601.5,44.5C 608.321,40.4286 615.654,37.4286 623.5,35.5C 627.951,35.9896 631.617,34.6563 634.5,31.5C 636.167,31.5 637.833,31.5 639.5,31.5C 642.518,31.6646 645.518,31.498 648.5,31C 651.896,28.5452 655.563,28.0452 659.5,29.5C 660.386,28.675 660.719,27.675 660.5,26.5C 667.873,25.6602 675.206,24.4935 682.5,23C 700.164,22.5001 717.83,22.3334 735.5,22.5 Z"/></g>
<g><path style="opacity:1" fill="#af373a" d="M 767.5,28.5 C 772.372,28.533 774.539,30.8663 774,35.5C 773.617,36.056 773.117,36.3893 772.5,36.5C 772.785,34.712 772.452,33.0453 771.5,31.5C 769.739,30.9649 768.406,29.9649 767.5,28.5 Z"/></g>
<g><path style="opacity:1" fill="#b43037" d="M 634.5,31.5 C 631.617,34.6563 627.951,35.9896 623.5,35.5C 626.939,33.7957 630.605,32.4624 634.5,31.5 Z"/></g>
<g><path style="opacity:1" fill="#faf5f2" d="M 701.5,48.5 C 708.655,48.1527 711.821,51.486 711,58.5C 706.965,63.3643 702.632,63.6976 698,59.5C 696.262,54.9623 697.429,51.2956 701.5,48.5 Z"/></g>
<g><path style="opacity:1" fill="#c33741" d="M 764.5,53.5 C 771.493,51.9959 774.327,54.6625 773,61.5C 772.76,63.8516 771.927,65.8516 770.5,67.5C 771.162,63.5341 771.495,59.5341 771.5,55.5C 768.848,55.5905 766.515,54.9238 764.5,53.5 Z"/></g>
<g><path style="opacity:1" fill="#460b0d" d="M 604.5,74.5 C 603.791,73.596 602.791,73.2627 601.5,73.5C 606.46,71.353 611.127,68.6864 615.5,65.5C 617.666,65.4211 619.666,64.7545 621.5,63.5C 622.167,63.8333 622.833,64.1667 623.5,64.5C 616.706,67.0624 610.373,70.3958 604.5,74.5 Z"/></g>
<g><path style="opacity:1" fill="#c12b2f" d="M 568.5,63.5 C 566.938,67.7334 563.938,70.0667 559.5,70.5C 559.5,71.8333 559.5,73.1667 559.5,74.5C 563.302,74.8949 563.469,75.8949 560,77.5C 558.864,76.2173 557.531,75.2173 556,74.5C 553.611,76.3994 551.111,78.0661 548.5,79.5C 553.988,72.677 560.655,67.3436 568.5,63.5 Z"/></g>
<g><path style="opacity:1" fill="#c03238" d="M 548.5,79.5 C 548.703,81.3904 548.037,82.8904 546.5,84C 542.699,86.3001 539.033,88.8001 535.5,91.5C 538.427,88.2323 541.427,84.8989 544.5,81.5C 545.622,80.3698 546.956,79.7031 548.5,79.5 Z"/></g>
<g><path style="opacity:1" fill="#bc3337" d="M 535.5,91.5 C 534.155,93.6968 532.989,96.0302 532,98.5C 527.672,101.009 523.839,104.009 520.5,107.5C 524.851,101.485 529.851,96.1514 535.5,91.5 Z"/></g>
<g><path style="opacity:1" fill="#160503" d="M 601.5,73.5 C 602.791,73.2627 603.791,73.596 604.5,74.5C 569.652,97.7724 539.819,126.439 515,160.5C 511.156,167.522 507.323,174.522 503.5,181.5C 495.785,194.605 489.785,208.605 485.5,223.5C 484.067,226.282 482.9,229.282 482,232.5C 481.333,230.5 481.333,228.5 482,226.5C 485.344,214.789 488.844,203.123 492.5,191.5C 514.943,139.388 551.277,100.055 601.5,73.5 Z"/></g>
<g><path style="opacity:1" fill="#d72428" d="M 475.5,143.5 C 474.152,141.52 472.152,140.353 469.5,140C 466.183,139.502 462.85,139.335 459.5,139.5C 459.629,137.784 459.962,136.117 460.5,134.5C 461.684,131.139 463.517,128.139 466,125.5C 470.72,120.444 475.72,115.777 481,111.5C 489.896,106.479 499.396,103.146 509.5,101.5C 510.833,101.833 512.167,102.167 513.5,102.5C 503.854,115.105 495.188,128.438 487.5,142.5C 483.555,143.491 479.555,143.824 475.5,143.5 Z"/></g>
<g><path style="opacity:1" fill="#ad2f35" d="M 506.5,127.5 C 506.657,128.873 506.49,130.207 506,131.5C 502.66,136.175 499.827,141.175 497.5,146.5C 497.043,147.298 496.376,147.631 495.5,147.5C 498.155,140.183 501.822,133.516 506.5,127.5 Z"/></g>
<g><path style="opacity:1" fill="#bf2f39" d="M 460.5,134.5 C 459.962,136.117 459.629,137.784 459.5,139.5C 462.85,139.335 466.183,139.502 469.5,140C 472.152,140.353 474.152,141.52 475.5,143.5C 469.553,142.18 463.553,141.18 457.5,140.5C 457.025,137.687 458.025,135.687 460.5,134.5 Z"/></g>
<g><path style="opacity:1" fill="#982b34" d="M 495.5,148.5 C 494.828,151.71 493.828,154.876 492.5,158C 492.164,159.03 491.497,159.53 490.5,159.5C 491.6,155.515 493.267,151.849 495.5,148.5 Z"/></g>
<g><path style="opacity:1" fill="#a82e36" d="M 490.5,159.5 C 490.662,161.527 490.495,163.527 490,165.5C 488.581,167.993 487.081,170.326 485.5,172.5C 486.599,167.856 488.266,163.522 490.5,159.5 Z"/></g>
<g><path style="opacity:1" fill="#a33032" d="M 484.5,175.5 C 484.116,179.586 483.283,183.586 482,187.5C 481.292,188.381 480.458,189.047 479.5,189.5C 480.796,184.607 482.462,179.94 484.5,175.5 Z"/></g>
<g><path style="opacity:1" fill="#c92f34" d="M 479.5,191.5 C 477.89,196.72 476.89,202.053 476.5,207.5C 475.5,207.5 474.5,207.5 473.5,207.5C 473.523,209.6 472.856,211.433 471.5,213C 471.93,214.434 472.764,215.601 474,216.5C 474.781,217.944 474.614,219.277 473.5,220.5C 472.194,219.088 471.36,217.421 471,215.5C 468.61,218.06 466.11,220.394 463.5,222.5C 469.618,212.598 474.951,202.265 479.5,191.5 Z"/></g>
<g><path style="opacity:1" fill="#cb3136" d="M 615.5,227.5 C 615.326,225.139 614.993,222.806 614.5,220.5C 613.167,220.5 611.833,220.5 610.5,220.5C 612.503,218.018 615.169,217.018 618.5,217.5C 618.243,221.171 617.243,224.505 615.5,227.5 Z"/></g>
<g><path style="opacity:1" fill="#d82226" d="M 601.5,44.5 C 600.37,46.3737 599.37,48.3737 598.5,50.5C 599.824,51.9347 601.49,52.9347 603.5,53.5C 603.062,54.5063 602.396,54.5063 601.5,53.5C 600.231,55.6948 600.231,57.8615 601.5,60C 599.893,59.9813 598.226,59.8146 596.5,59.5C 596.146,57.4588 596.146,55.6255 596.5,54C 592.909,53.4556 589.909,54.6223 587.5,57.5C 588.59,58.6086 588.59,59.6086 587.5,60.5C 586.167,59.5 584.833,58.5 583.5,57.5C 584.811,56.7425 585.311,55.7425 585,54.5C 582.863,55.4786 581.029,56.8119 579.5,58.5C 583.074,61.645 587.074,62.9784 591.5,62.5C 590.359,61.5745 590.359,60.7412 591.5,60C 594.926,58.7619 596.592,59.9286 596.5,63.5C 599.343,63.9172 602.01,64.9172 604.5,66.5C 603.975,67.1924 603.308,67.6924 602.5,68C 603.905,69.2692 605.571,69.7692 607.5,69.5C 607.36,67.8762 608.027,66.7096 609.5,66C 611.473,65.5045 613.473,65.3379 615.5,65.5C 611.127,68.6864 606.46,71.353 601.5,73.5C 551.277,100.055 514.943,139.388 492.5,191.5C 491.883,191.389 491.383,191.056 491,190.5C 488.372,199.33 485.372,207.997 482,216.5C 481.033,220.803 480.199,225.137 479.5,229.5C 479.17,235.629 480.503,236.463 483.5,232C 484.687,229.276 485.353,226.443 485.5,223.5C 489.785,208.605 495.785,194.605 503.5,181.5C 502.949,184.807 502.616,188.14 502.5,191.5C 501.5,191.5 500.5,191.5 499.5,191.5C 499.5,194.167 499.5,196.833 499.5,199.5C 498.167,199.5 496.833,199.5 495.5,199.5C 493.969,203.94 493.302,208.606 493.5,213.5C 493.611,217.481 494.278,221.314 495.5,225C 494.07,226.889 493.403,229.055 493.5,231.5C 494.637,237.98 495.304,237.98 495.5,231.5C 500.833,231.5 506.167,231.5 511.5,231.5C 511.5,229.833 511.5,228.167 511.5,226.5C 512.833,226.5 514.167,226.5 515.5,226.5C 515.33,227.822 515.663,228.989 516.5,230C 519.685,230.735 522.685,230.235 525.5,228.5C 527.954,229.472 530.121,230.805 532,232.5C 532.5,232 533,231.5 533.5,231C 537.833,230.667 542.167,230.333 546.5,230C 545.5,229.667 544.5,229.333 543.5,229C 547.685,228.669 551.685,227.836 555.5,226.5C 557.333,226.585 558.666,227.252 559.5,228.5C 544.162,230.506 529.496,235.006 515.5,242C 499.086,252.625 489.586,267.792 487,287.5C 485.988,293.796 485.488,300.129 485.5,306.5C 483.891,309.149 483.057,312.149 483,315.5C 482.536,314.906 482.369,314.239 482.5,313.5C 481.853,299.466 480.853,285.466 479.5,271.5C 474.167,271.5 468.833,271.5 463.5,271.5C 464.13,260.41 463.463,249.577 461.5,239C 464.076,237.617 463.742,236.783 460.5,236.5C 457.199,237.554 453.865,238.054 450.5,238C 454.126,234.551 458.46,232.718 463.5,232.5C 454.234,231.058 444.901,230.058 435.5,229.5C 431.691,228.774 428.024,227.774 424.5,226.5C 422.079,226.229 421.413,226.895 422.5,228.5C 425.428,229.484 428.428,229.817 431.5,229.5C 431.5,230.5 431.5,231.5 431.5,232.5C 429.345,232.372 427.345,232.872 425.5,234C 428.839,234.39 432.173,234.224 435.5,233.5C 439.17,235.659 443.17,236.659 447.5,236.5C 447.5,237.5 447.5,238.5 447.5,239.5C 442.156,239.666 436.823,239.499 431.5,239C 434.167,238.667 436.833,238.333 439.5,238C 430.653,237.01 421.986,237.844 413.5,240.5C 416.154,242.895 415.821,244.895 412.5,246.5C 411.808,245.975 411.308,245.308 411,244.5C 410.667,244.833 410.333,245.167 410,245.5C 409.51,244.207 409.343,242.873 409.5,241.5C 408.5,241.5 407.5,241.5 406.5,241.5C 406.64,243.124 405.973,244.29 404.5,245C 406.607,246.264 407.607,248.097 407.5,250.5C 404.956,249.292 403.622,247.292 403.5,244.5C 401.058,244.646 400.391,243.813 401.5,242C 396.479,240.613 391.812,238.78 387.5,236.5C 374.714,229.217 362.047,221.717 349.5,214C 345.104,210.19 345.771,207.856 351.5,207C 362.231,206.186 372.898,206.686 383.5,208.5C 402.219,216.239 421.219,223.072 440.5,229C 449.289,230.243 456.956,228.077 463.5,222.5C 466.11,220.394 468.61,218.06 471,215.5C 471.36,217.421 472.194,219.088 473.5,220.5C 474.614,219.277 474.781,217.944 474,216.5C 472.764,215.601 471.93,214.434 471.5,213C 472.856,211.433 473.523,209.6 473.5,207.5C 474.5,207.5 475.5,207.5 476.5,207.5C 476.89,202.053 477.89,196.72 479.5,191.5C 479.5,190.833 479.5,190.167 479.5,189.5C 480.458,189.047 481.292,188.381 482,187.5C 483.283,183.586 484.116,179.586 484.5,175.5C 485.404,174.791 485.737,173.791 485.5,172.5C 487.081,170.326 488.581,167.993 490,165.5C 490.495,163.527 490.662,161.527 490.5,159.5C 491.497,159.53 492.164,159.03 492.5,158C 493.828,154.876 494.828,151.71 495.5,148.5C 495.5,148.167 495.5,147.833 495.5,147.5C 496.376,147.631 497.043,147.298 497.5,146.5C 499.827,141.175 502.66,136.175 506,131.5C 506.49,130.207 506.657,128.873 506.5,127.5C 510.395,120.275 515.062,113.608 520.5,107.5C 523.839,104.009 527.672,101.009 532,98.5C 532.989,96.0302 534.155,93.6968 535.5,91.5C 539.033,88.8001 542.699,86.3001 546.5,84C 548.037,82.8904 548.703,81.3904 548.5,79.5C 551.111,78.0661 553.611,76.3994 556,74.5C 557.531,75.2173 558.864,76.2173 560,77.5C 563.469,75.8949 563.302,74.8949 559.5,74.5C 559.5,73.1667 559.5,71.8333 559.5,70.5C 563.938,70.0667 566.938,67.7334 568.5,63.5C 572.766,60.3546 577.099,57.1879 581.5,54C 587.866,50.1174 594.533,46.9507 601.5,44.5 Z"/></g>
<g><path style="opacity:1" fill="#c7323c" d="M 492.5,191.5 C 488.844,203.123 485.344,214.789 482,226.5C 481.333,228.5 481.333,230.5 482,232.5C 482.9,229.282 484.067,226.282 485.5,223.5C 485.353,226.443 484.687,229.276 483.5,232C 480.503,236.463 479.17,235.629 479.5,229.5C 480.199,225.137 481.033,220.803 482,216.5C 485.372,207.997 488.372,199.33 491,190.5C 491.383,191.056 491.883,191.389 492.5,191.5 Z"/></g>
<g><path style="opacity:1" fill="#db2024" d="M 482.5,313.5 C 481.357,323.341 480.357,333.341 479.5,343.5C 478.227,351.986 475.56,359.986 471.5,367.5C 469.287,370.08 467.12,370.08 465,367.5C 463.763,363.94 463.263,360.273 463.5,356.5C 463.665,352.818 463.499,349.152 463,345.5C 461.308,342.224 460.141,338.891 459.5,335.5C 454.342,315.872 446.175,297.539 435,280.5C 428.7,272.834 422.2,265.5 415.5,258.5C 415.64,256.876 414.973,255.71 413.5,255C 413.833,254.667 414.167,254.333 414.5,254C 412.667,252.5 410.833,251 409,249.5C 408.617,250.056 408.117,250.389 407.5,250.5C 407.607,248.097 406.607,246.264 404.5,245C 405.973,244.29 406.64,243.124 406.5,241.5C 407.5,241.5 408.5,241.5 409.5,241.5C 409.343,242.873 409.51,244.207 410,245.5C 410.333,245.167 410.667,244.833 411,244.5C 411.308,245.308 411.808,245.975 412.5,246.5C 415.821,244.895 416.154,242.895 413.5,240.5C 421.986,237.844 430.653,237.01 439.5,238C 436.833,238.333 434.167,238.667 431.5,239C 436.823,239.499 442.156,239.666 447.5,239.5C 447.5,238.5 447.5,237.5 447.5,236.5C 443.17,236.659 439.17,235.659 435.5,233.5C 432.173,234.224 428.839,234.39 425.5,234C 427.345,232.872 429.345,232.372 431.5,232.5C 431.5,231.5 431.5,230.5 431.5,229.5C 428.428,229.817 425.428,229.484 422.5,228.5C 421.413,226.895 422.079,226.229 424.5,226.5C 428.024,227.774 431.691,228.774 435.5,229.5C 444.901,230.058 454.234,231.058 463.5,232.5C 458.46,232.718 454.126,234.551 450.5,238C 453.865,238.054 457.199,237.554 460.5,236.5C 463.742,236.783 464.076,237.617 461.5,239C 463.463,249.577 464.13,260.41 463.5,271.5C 468.833,271.5 474.167,271.5 479.5,271.5C 480.853,285.466 481.853,299.466 482.5,313.5 Z"/></g>
<g><path style="opacity:1" fill="#c23a3d" d="M 586.5,247.5 C 587.712,248.23 588.712,249.23 589.5,250.5C 590.132,253.03 591.132,255.363 592.5,257.5C 593.524,256.147 594.857,255.48 596.5,255.5C 595.452,257.534 593.786,258.867 591.5,259.5C 589.225,255.712 587.559,251.712 586.5,247.5 Z"/></g>
<g><path style="opacity:1" fill="#c62b34" d="M 387.5,236.5 C 391.812,238.78 396.479,240.613 401.5,242C 400.391,243.813 401.058,244.646 403.5,244.5C 403.622,247.292 404.956,249.292 407.5,250.5C 408.117,250.389 408.617,250.056 409,249.5C 410.833,251 412.667,252.5 414.5,254C 414.167,254.333 413.833,254.667 413.5,255C 414.973,255.71 415.64,256.876 415.5,258.5C 406.128,251.156 396.794,243.822 387.5,236.5 Z"/></g>
<g><path style="opacity:1" fill="#d82327" d="M 610.5,220.5 C 611.833,220.5 613.167,220.5 614.5,220.5C 614.993,222.806 615.326,225.139 615.5,227.5C 615.657,228.873 615.49,230.207 615,231.5C 610.859,241.203 604.692,249.203 596.5,255.5C 594.857,255.48 593.524,256.147 592.5,257.5C 591.132,255.363 590.132,253.03 589.5,250.5C 588.712,249.23 587.712,248.23 586.5,247.5C 583.46,242.881 581.293,237.881 580,232.5C 590.068,228.269 600.235,224.269 610.5,220.5 Z"/></g>
<g><path style="opacity:1" fill="#f9f9f9" d="M 373.5,288.5 C 388.666,289.166 400.833,295.499 410,307.5C 412.898,312.273 414.898,317.273 416,322.5C 412.79,318.813 408.956,315.979 404.5,314C 393.052,311.378 381.719,308.378 370.5,305C 364.741,298.292 365.741,292.792 373.5,288.5 Z"/></g>
<g><path style="opacity:1" fill="#fafafa" d="M 548.5,297.5 C 560.572,297.888 564.072,303.554 559,314.5C 550.5,320.333 542,326.167 533.5,332C 528.366,336.133 523.532,340.633 519,345.5C 520.315,329.222 526.482,315.055 537.5,303C 540.99,300.588 544.657,298.755 548.5,297.5 Z"/></g>
<g><path style="opacity:1" fill="#c5343b" d="M 485.5,306.5 C 484.236,319.083 482.236,331.416 479.5,343.5C 480.357,333.341 481.357,323.341 482.5,313.5C 482.369,314.239 482.536,314.906 483,315.5C 483.057,312.149 483.891,309.149 485.5,306.5 Z"/></g>
<g><path style="opacity:1" fill="#f8f8f8" d="M 365.5,328.5 C 377.621,328.863 388.954,332.03 399.5,338C 403.548,341.446 406.882,345.446 409.5,350C 404.087,346.862 398.087,344.862 391.5,344C 383.626,343.615 375.793,344.115 368,345.5C 364.407,345.06 360.907,344.227 357.5,343C 354.165,340.321 353.665,337.155 356,333.5C 358.907,331.132 362.074,329.465 365.5,328.5 Z"/></g>
<g><path style="opacity:1" fill="#c33340" d="M 459.5,335.5 C 460.141,338.891 461.308,342.224 463,345.5C 463.499,349.152 463.665,352.818 463.5,356.5C 461.405,349.759 460.071,342.759 459.5,335.5 Z"/></g>
<g><path style="opacity:1" fill="#f5f5f5" d="M 397.5,365.5 C 403.509,365.334 409.509,365.501 415.5,366C 388.408,367.738 361.742,372.071 335.5,379C 322.763,382.01 311.597,387.843 302,396.5C 300,399.167 300,401.833 302,404.5C 305.887,408.528 310.387,411.694 315.5,414C 348.56,425.279 382.56,431.945 417.5,434C 434.152,435.019 450.818,435.686 467.5,436C 416.53,439.797 366.197,435.797 316.5,424C 307.228,421.689 298.561,418.023 290.5,413C 281.167,405.667 281.167,398.333 290.5,391C 297.276,386.279 304.609,382.612 312.5,380C 340.437,372.036 368.771,367.203 397.5,365.5 Z"/></g>
<g><path style="opacity:1" fill="#f6f6f6" d="M 543.5,367.5 C 577.215,367.048 610.549,371.214 643.5,380C 655.976,382.989 667.143,388.489 677,396.5C 679.721,399.638 680.054,402.971 678,406.5C 672.434,412.038 665.934,416.205 658.5,419C 629.9,428.387 600.566,434.053 570.5,436C 552.186,437.416 533.853,437.75 515.5,437C 554.985,436.197 593.652,430.197 631.5,419C 636.62,416.94 641.62,414.607 646.5,412C 657.086,406.169 658.086,399.169 649.5,391C 644.226,387.53 638.56,384.864 632.5,383C 603.349,374.808 573.683,369.642 543.5,367.5 Z"/></g>
<g><path style="opacity:1" fill="#f4f4f4" d="M 426.5,379.5 C 429.187,379.336 431.854,379.503 434.5,380C 418.173,381.799 402.173,385.132 386.5,390C 382.069,391.629 378.236,394.129 375,397.5C 374.245,400.497 375.078,402.997 377.5,405C 388.357,409.882 399.691,413.215 411.5,415C 422.437,416.845 433.437,418.178 444.5,419C 420.374,420.221 396.708,417.554 373.5,411C 356.299,403.773 356.299,396.44 373.5,389C 390.893,383.544 408.559,380.377 426.5,379.5 Z"/></g>
<g><path style="opacity:1" fill="#f5f5f5" d="M 503.5,382.5 C 522.753,381.179 541.42,384.346 559.5,392C 560.685,393.353 562.019,394.52 563.5,395.5C 564.485,397.098 564.651,398.765 564,400.5C 560.703,403.567 556.869,405.733 552.5,407C 522.625,412.394 492.958,411.394 463.5,404C 488.519,407.642 513.519,407.309 538.5,403C 542.385,402.261 546.052,400.927 549.5,399C 550.517,397.951 550.684,396.784 550,395.5C 547.592,393.044 544.759,391.211 541.5,390C 529.147,385.896 516.48,383.396 503.5,382.5 Z"/></g>
<g><path style="opacity:1" fill="#fcfcfc" d="M -0.5,532.5 C 3.51505,533.591 7.01505,535.591 10,538.5C 10.4998,548.494 10.6665,558.494 10.5,568.5C 7.16667,568.5 3.83333,568.5 0.5,568.5C 0.784479,566.585 0.451145,564.919 -0.5,563.5C -0.5,553.167 -0.5,542.833 -0.5,532.5 Z"/></g>
<g><path style="opacity:1" fill="#fcfcfc" d="M 80.5,532.5 C 87.4222,532.188 94.2555,532.521 101,533.5C 116.864,577.424 132.53,621.424 148,665.5C 150.448,673.125 155.615,677.125 163.5,677.5C 163.5,680.167 163.5,682.833 163.5,685.5C 146.167,685.5 128.833,685.5 111.5,685.5C 111.5,682.833 111.5,680.167 111.5,677.5C 115.263,677.143 118.93,676.31 122.5,675C 123.718,673.562 124.385,671.895 124.5,670C 120.925,658.442 117.258,646.942 113.5,635.5C 95.1636,635.333 76.8303,635.5 58.5,636C 53.1494,647.709 49.6494,659.876 48,672.5C 51.7977,676.934 56.631,678.934 62.5,678.5C 62.5,680.833 62.5,683.167 62.5,685.5C 46.8333,685.5 31.1667,685.5 15.5,685.5C 15.5,682.833 15.5,680.167 15.5,677.5C 18.941,677.699 22.2744,677.199 25.5,676C 29.2084,672.09 32.0417,667.59 34,662.5C 49.2352,619.038 64.7352,575.705 80.5,532.5 Z"/></g>
<g><path style="opacity:1" fill="#fbfbfb" d="M 566.5,532.5 C 573.422,532.188 580.256,532.521 587,533.5C 602.667,577.167 618.333,620.833 634,664.5C 636.312,672.982 641.812,677.649 650.5,678.5C 650.5,680.833 650.5,683.167 650.5,685.5C 632.5,685.5 614.5,685.5 596.5,685.5C 596.5,682.833 596.5,680.167 596.5,677.5C 600.41,677.737 604.077,676.904 607.5,675C 609.357,673.818 610.357,672.151 610.5,670C 606.925,658.442 603.258,646.942 599.5,635.5C 581.164,635.333 562.83,635.5 544.5,636C 539.835,646.33 536.168,656.996 533.5,668C 533.039,671.545 534.372,674.212 537.5,676C 541.07,677.31 544.737,678.143 548.5,678.5C 548.5,680.833 548.5,683.167 548.5,685.5C 532.5,685.5 516.5,685.5 500.5,685.5C 500.337,683.143 500.503,680.81 501,678.5C 510.47,678.37 516.47,673.703 519,664.5C 535.14,620.579 550.973,576.579 566.5,532.5 Z"/></g>
<g><path style="opacity:1" fill="#fbfbfb" d="M 663.5,532.5 C 691.528,532.08 719.528,532.58 747.5,534C 772.359,539.547 783.192,555.047 780,580.5C 777.862,593.29 771.362,603.123 760.5,610C 755.802,612.349 751.136,614.682 746.5,617C 758.458,635.081 770.291,653.248 782,671.5C 786.612,676.889 792.445,678.889 799.5,677.5C 799.5,680.5 799.5,683.5 799.5,686.5C 789.776,686.859 780.109,686.359 770.5,685C 763.119,682.284 757.619,677.451 754,670.5C 744.544,653.752 734.711,637.252 724.5,621C 716.841,620.5 709.174,620.334 701.5,620.5C 701.333,636.837 701.5,653.17 702,669.5C 702.346,671.848 703.513,673.681 705.5,675C 709.253,676.989 713.253,677.822 717.5,677.5C 717.5,680.167 717.5,682.833 717.5,685.5C 699.5,685.5 681.5,685.5 663.5,685.5C 663.5,682.833 663.5,680.167 663.5,677.5C 669.49,677.901 673.99,675.568 677,670.5C 678.138,649.374 678.638,628.207 678.5,607C 678.333,587.5 678.167,568 678,548.5C 675.306,542.298 670.473,539.298 663.5,539.5C 663.5,537.167 663.5,534.833 663.5,532.5 Z"/></g>
<g><path style="opacity:1" fill="#fcfcfc" d="M 166.5,532.5 C 183.833,532.5 201.167,532.5 218.5,532.5C 218.5,534.833 218.5,537.167 218.5,539.5C 211.984,539 207.484,541.667 205,547.5C 204.5,589.499 204.333,631.499 204.5,673.5C 219.423,674.189 234.089,672.689 248.5,669C 252.241,667.262 255.408,664.762 258,661.5C 260.039,657.255 262.206,653.088 264.5,649C 266.488,648.82 268.488,648.986 270.5,649.5C 269.374,661.252 267.708,672.919 265.5,684.5C 232.507,685.5 199.507,685.833 166.5,685.5C 166.5,682.833 166.5,680.167 166.5,677.5C 174.65,678.181 179.484,674.514 181,666.5C 181.667,626.833 181.667,587.167 181,547.5C 180.293,545.919 179.46,544.419 178.5,543C 174.673,541.21 170.673,540.044 166.5,539.5C 166.5,537.167 166.5,534.833 166.5,532.5 Z"/></g>
<g><path style="opacity:1" fill="#fbfbfb" d="M 302.5,532.5 C 314.747,532.178 326.914,532.512 339,533.5C 357.576,575.649 376.409,617.649 395.5,659.5C 413.816,617.53 432.149,575.53 450.5,533.5C 462.815,532.501 475.149,532.168 487.5,532.5C 487.5,534.833 487.5,537.167 487.5,539.5C 476.317,539.518 470.65,545.018 470.5,556C 472.199,593.543 474.365,631.043 477,668.5C 480.057,674.954 485.224,678.287 492.5,678.5C 492.5,680.833 492.5,683.167 492.5,685.5C 474.167,685.5 455.833,685.5 437.5,685.5C 437.5,682.833 437.5,680.167 437.5,677.5C 449.238,677.593 454.571,671.76 453.5,660C 452.014,629.147 450.181,598.314 448,567.5C 432.051,606.731 415.551,645.731 398.5,684.5C 393.198,685.663 387.864,685.829 382.5,685C 365.476,645.599 348.643,606.099 332,566.5C 329.978,598.484 328.644,630.484 328,662.5C 328.545,672.876 334.045,677.876 344.5,677.5C 344.5,680.167 344.5,682.833 344.5,685.5C 328.833,685.5 313.167,685.5 297.5,685.5C 297.5,682.833 297.5,680.167 297.5,677.5C 306.935,677.565 312.102,672.899 313,663.5C 315.399,625.518 317.066,587.518 318,549.5C 315.335,542.569 310.169,539.236 302.5,539.5C 302.5,537.167 302.5,534.833 302.5,532.5 Z"/></g>
<g><path style="opacity:1" fill="#fafafa" d="M 814.5,532.5 C 832.5,532.5 850.5,532.5 868.5,532.5C 868.5,534.833 868.5,537.167 868.5,539.5C 860.841,539.232 855.674,542.565 853,549.5C 852.333,588.833 852.333,628.167 853,667.5C 855.375,674.948 860.541,678.282 868.5,677.5C 868.5,680.167 868.5,682.833 868.5,685.5C 850.5,685.5 832.5,685.5 814.5,685.5C 814.5,682.833 814.5,680.167 814.5,677.5C 821.92,678.385 826.753,675.385 829,668.5C 829.667,627.833 829.667,587.167 829,546.5C 825.471,541.653 820.637,539.32 814.5,539.5C 814.5,537.167 814.5,534.833 814.5,532.5 Z"/></g>
<g><path style="opacity:1" fill="#fcfcfc" d="M 1023.5,532.5 C 1023.5,536.5 1023.5,540.5 1023.5,544.5C 1021.86,545.749 1020.7,547.416 1020,549.5C 1019.5,594.832 1019.33,640.165 1019.5,685.5C 1014.82,685.666 1010.15,685.499 1005.5,685C 974.284,645.452 943.451,605.619 913,565.5C 912.333,598.5 912.333,631.5 913,664.5C 914.001,673.606 919.167,677.94 928.5,677.5C 928.5,680.167 928.5,682.833 928.5,685.5C 913.5,685.5 898.5,685.5 883.5,685.5C 883.5,682.833 883.5,680.167 883.5,677.5C 890.157,677.597 894.657,674.597 897,668.5C 898.137,648.041 898.637,627.541 898.5,607C 898.333,588.167 898.167,569.333 898,550.5C 897.697,548.112 896.863,545.945 895.5,544C 891.911,541.369 887.911,540.203 883.5,540.5C 883.5,537.833 883.5,535.167 883.5,532.5C 893.506,532.334 903.506,532.5 913.5,533C 944,572.833 974.5,612.667 1005,652.5C 1005.67,618.5 1005.67,584.5 1005,550.5C 1004.7,548.112 1003.86,545.945 1002.5,544C 998.56,541.43 994.227,539.93 989.5,539.5C 989.5,537.167 989.5,534.833 989.5,532.5C 1000.83,532.5 1012.17,532.5 1023.5,532.5 Z"/></g>
<g><path style="opacity:1" fill="#010101" d="M 701.5,544.5 C 713.618,543.927 725.618,544.76 737.5,547C 750.04,552.07 756.374,561.403 756.5,575C 756.93,593.843 747.93,604.843 729.5,608C 720.173,608.5 710.839,608.666 701.5,608.5C 701.5,587.167 701.5,565.833 701.5,544.5 Z"/></g>
<g><path style="opacity:1" fill="#020202" d="M 85.5,558.5 C 87.1172,560.121 88.2838,562.121 89,564.5C 95.6069,584.154 102.107,603.821 108.5,623.5C 93.163,623.667 77.8297,623.5 62.5,623C 70.5956,601.644 78.2623,580.144 85.5,558.5 Z"/></g>
<g><path style="opacity:1" fill="#020202" d="M 571.5,558.5 C 573.117,560.121 574.284,562.121 575,564.5C 581.641,584.092 588.475,603.592 595.5,623C 579.833,623.667 564.167,623.667 548.5,623C 556.468,601.595 564.135,580.095 571.5,558.5 Z"/></g>
<g><path style="opacity:1" fill="#fafafa" d="M -0.5,682.5 C -0.5,674.167 -0.5,665.833 -0.5,657.5C 3.2261,653.727 6.7261,649.727 10,645.5C 12.5144,645.997 14.3477,647.331 15.5,649.5C 13.475,658.125 11.6417,666.792 10,675.5C 7.07334,678.712 3.57334,681.045 -0.5,682.5 Z"/></g>
<g><path style="opacity:1" fill="#f9f9f9" d="M 214.5,751.5 C 214.5,755.833 214.5,760.167 214.5,764.5C 212.5,764.5 210.5,764.5 208.5,764.5C 207.053,755.268 201.72,751.768 192.5,754C 185.273,757.6 184.607,762.266 190.5,768C 196.675,771.588 203.009,774.922 209.5,778C 217.828,784.172 219.661,792.005 215,801.5C 211.579,805.257 207.412,807.757 202.5,809C 193.674,810.08 185.007,809.413 176.5,807C 175.529,801.928 175.195,796.762 175.5,791.5C 177.604,791.201 179.604,791.534 181.5,792.5C 184.279,801.393 190.279,804.893 199.5,803C 206.16,800.51 207.993,796.01 205,789.5C 196.914,784.873 188.747,780.373 180.5,776C 172.569,764.446 174.902,755.446 187.5,749C 196.975,746.372 205.975,747.206 214.5,751.5 Z"/></g>
<g><path style="opacity:1" fill="#f8f8f8" d="M 397.5,747.5 C 407.059,746.88 416.392,747.88 425.5,750.5C 425.5,755.833 425.5,761.167 425.5,766.5C 423.167,766.5 420.833,766.5 418.5,766.5C 417.37,754.913 411.037,750.747 399.5,754C 389.648,758.193 385.315,765.693 386.5,776.5C 385.348,794.514 393.682,803.014 411.5,802C 416.457,800.256 419.124,796.756 419.5,791.5C 421.5,791.5 423.5,791.5 425.5,791.5C 425.5,796.5 425.5,801.5 425.5,806.5C 415.673,809.213 405.673,810.046 395.5,809C 385.275,807.106 378.442,801.273 375,791.5C 369.09,769.647 376.59,754.981 397.5,747.5 Z"/></g>
<g><path style="opacity:1" fill="#f8f8f8" d="M 477.5,746.5 C 502.474,747.641 513.641,760.641 511,785.5C 508.619,798.215 501.119,806.048 488.5,809C 467.8,812.251 455.3,803.751 451,783.5C 449.57,763.661 458.403,751.328 477.5,746.5 Z"/></g>
<g><path style="opacity:1" fill="#fbfbfb" d="M 81.5,773.5 C 82.8471,772.829 84.0138,772.829 85,773.5C 85.499,777.821 85.6657,782.154 85.5,786.5C 84.1667,786.5 82.8333,786.5 81.5,786.5C 81.7035,784.61 81.0368,783.11 79.5,782C 74.5111,781.501 69.5111,781.334 64.5,781.5C 64.3338,787.842 64.5005,794.175 65,800.5C 67.1533,803.124 69.9866,804.124 73.5,803.5C 73.5,805.167 73.5,806.833 73.5,808.5C 64.5,808.5 55.5,808.5 46.5,808.5C 46.5,806.833 46.5,805.167 46.5,803.5C 49.0444,803.896 51.2111,803.229 53,801.5C 53.6667,786.167 53.6667,770.833 53,755.5C 50.6985,754.133 48.1985,753.466 45.5,753.5C 45.5,751.833 45.5,750.167 45.5,748.5C 61.1667,748.5 76.8333,748.5 92.5,748.5C 92.5,753.5 92.5,758.5 92.5,763.5C 90.396,763.799 88.396,763.466 86.5,762.5C 85.7865,760.189 84.7865,758.022 83.5,756C 77.1754,755.5 70.8421,755.334 64.5,755.5C 64.5,762.167 64.5,768.833 64.5,775.5C 69.8437,775.666 75.1771,775.499 80.5,775C 81.056,774.617 81.3893,774.117 81.5,773.5 Z"/></g>
<g><path style="opacity:1" fill="#f8f8f8" d="M 122.5,748.5 C 130.833,748.5 139.167,748.5 147.5,748.5C 147.5,750.5 147.5,752.5 147.5,754.5C 144.453,753.855 142.287,754.855 141,757.5C 140.333,772.167 140.333,786.833 141,801.5C 142.465,803.915 144.632,804.915 147.5,804.5C 147.5,805.833 147.5,807.167 147.5,808.5C 139.167,808.5 130.833,808.5 122.5,808.5C 122.238,807.022 122.571,805.689 123.5,804.5C 125.059,803.926 126.559,803.26 128,802.5C 128.667,786.833 128.667,771.167 128,755.5C 126.301,754.594 124.467,754.261 122.5,754.5C 122.5,752.5 122.5,750.5 122.5,748.5 Z"/></g>
<g><path style="opacity:1" fill="#f8f8f8" d="M 244.5,748.5 C 252.5,748.5 260.5,748.5 268.5,748.5C 268.5,750.167 268.5,751.833 268.5,753.5C 266.418,753.472 264.584,754.139 263,755.5C 262.5,761.825 262.334,768.158 262.5,774.5C 271.167,774.5 279.833,774.5 288.5,774.5C 288.666,768.491 288.499,762.491 288,756.5C 286.266,754.549 284.099,753.549 281.5,753.5C 281.5,751.833 281.5,750.167 281.5,748.5C 290.167,748.5 298.833,748.5 307.5,748.5C 307.5,750.167 307.5,751.833 307.5,753.5C 305.139,753.674 302.806,754.007 300.5,754.5C 300.333,770.17 300.5,785.837 301,801.5C 302.897,803.016 305.064,803.683 307.5,803.5C 307.5,805.167 307.5,806.833 307.5,808.5C 298.833,808.5 290.167,808.5 281.5,808.5C 281.5,806.833 281.5,805.167 281.5,803.5C 284.044,803.896 286.211,803.229 288,801.5C 288.5,794.842 288.666,788.175 288.5,781.5C 279.833,781.5 271.167,781.5 262.5,781.5C 262.334,788.175 262.5,794.842 263,801.5C 264.444,803.155 266.278,803.822 268.5,803.5C 268.5,805.167 268.5,806.833 268.5,808.5C 260.5,808.5 252.5,808.5 244.5,808.5C 244.5,806.833 244.5,805.167 244.5,803.5C 246.582,803.528 248.416,802.861 250,801.5C 250.667,786.167 250.667,770.833 250,755.5C 248.416,754.139 246.582,753.472 244.5,753.5C 244.5,751.833 244.5,750.167 244.5,748.5 Z"/></g>
<g><path style="opacity:1" fill="#f8f8f8" d="M 540.5,748.5 C 547.167,748.5 553.833,748.5 560.5,748.5C 565.027,762.245 569.86,775.912 575,789.5C 580.556,776.386 585.556,763.053 590,749.5C 597.079,748.52 604.245,748.187 611.5,748.5C 611.5,750.167 611.5,751.833 611.5,753.5C 609.409,753.318 607.409,753.652 605.5,754.5C 604.569,770.24 605.403,785.907 608,801.5C 609.897,803.016 612.064,803.683 614.5,803.5C 614.5,805.167 614.5,806.833 614.5,808.5C 606.167,808.5 597.833,808.5 589.5,808.5C 589.5,806.833 589.5,805.167 589.5,803.5C 594.365,803.634 596.365,801.301 595.5,796.5C 594.477,784.847 593.644,773.181 593,761.5C 587.721,777.171 582.554,792.838 577.5,808.5C 574.5,808.5 571.5,808.5 568.5,808.5C 564.173,793.685 559.339,779.018 554,764.5C 552.706,777.168 552.539,789.834 553.5,802.5C 555.071,803.309 556.738,803.643 558.5,803.5C 558.5,805.167 558.5,806.833 558.5,808.5C 551.167,808.5 543.833,808.5 536.5,808.5C 536.5,806.833 536.5,805.167 536.5,803.5C 538.936,803.683 541.103,803.016 543,801.5C 544.957,787.728 546.457,773.894 547.5,760C 547.296,755.631 544.963,753.465 540.5,753.5C 540.5,751.833 540.5,750.167 540.5,748.5 Z"/></g>
<g><path style="opacity:1" fill="#fafafa" d="M 639.5,748.5 C 651.505,748.333 663.505,748.5 675.5,749C 687.733,751.608 692.233,759.108 689,771.5C 685.795,779.208 679.962,783.708 671.5,785C 666.913,785.799 662.413,785.632 658,784.5C 657.333,790.167 657.333,795.833 658,801.5C 660.565,803.179 663.398,803.846 666.5,803.5C 666.5,805.167 666.5,806.833 666.5,808.5C 657.5,808.5 648.5,808.5 639.5,808.5C 639.5,806.833 639.5,805.167 639.5,803.5C 641.722,803.822 643.556,803.155 645,801.5C 645.5,785.837 645.667,770.17 645.5,754.5C 643.5,754.167 641.5,753.833 639.5,753.5C 639.5,751.833 639.5,750.167 639.5,748.5 Z"/></g>
<g><path style="opacity:1" fill="#f9f9f9" d="M 733.5,748.5 C 737.5,748.5 741.5,748.5 745.5,748.5C 751.026,765.244 756.86,781.911 763,798.5C 764.484,802.488 767.317,804.154 771.5,803.5C 771.5,805.167 771.5,806.833 771.5,808.5C 762.5,808.5 753.5,808.5 744.5,808.5C 744.5,806.833 744.5,805.167 744.5,803.5C 747.617,804.073 749.617,802.906 750.5,800C 749.802,796.738 748.802,793.572 747.5,790.5C 744,790.167 740.5,789.833 737,789.5C 733.069,789.544 729.402,790.211 726,791.5C 724.266,795.017 723.599,798.684 724,802.5C 726.041,803.423 728.208,803.756 730.5,803.5C 730.5,805.167 730.5,806.833 730.5,808.5C 723.167,808.5 715.833,808.5 708.5,808.5C 708.5,806.833 708.5,805.167 708.5,803.5C 711.099,803.451 713.266,802.451 715,800.5C 721.273,783.181 727.439,765.848 733.5,748.5 Z"/></g>
<g><path style="opacity:1" fill="#f9f9f9" d="M 792.5,748.5 C 798.206,748.171 803.872,748.505 809.5,749.5C 819.86,763.36 830.027,777.36 840,791.5C 840.667,779.833 840.667,768.167 840,756.5C 838.005,754.253 835.505,753.253 832.5,753.5C 832.5,751.833 832.5,750.167 832.5,748.5C 839.833,748.5 847.167,748.5 854.5,748.5C 854.5,750.167 854.5,751.833 854.5,753.5C 851.901,753.549 849.734,754.549 848,756.5C 847.5,773.83 847.333,791.163 847.5,808.5C 843.993,809.006 840.826,808.34 838,806.5C 827.667,792.167 817.333,777.833 807,763.5C 806.333,774.833 806.333,786.167 807,797.5C 807.417,801.972 809.917,803.972 814.5,803.5C 814.5,805.167 814.5,806.833 814.5,808.5C 807.167,808.5 799.833,808.5 792.5,808.5C 792.5,806.833 792.5,805.167 792.5,803.5C 795.368,803.915 797.535,802.915 799,800.5C 799.667,785.833 799.667,771.167 799,756.5C 797.448,755.034 795.614,754.034 793.5,753.5C 792.548,751.955 792.215,750.288 792.5,748.5 Z"/></g>
<g><path style="opacity:1" fill="#fafafa" d="M 877.5,748.5 C 886.5,748.5 895.5,748.5 904.5,748.5C 904.5,750.167 904.5,751.833 904.5,753.5C 901.756,753.2 900.089,754.367 899.5,757C 902.508,763.518 905.675,770.018 909,776.5C 913.041,769.583 917.208,762.75 921.5,756C 920.022,753.961 918.022,753.128 915.5,753.5C 915.5,751.833 915.5,750.167 915.5,748.5C 922.5,748.5 929.5,748.5 936.5,748.5C 936.785,750.288 936.452,751.955 935.5,753.5C 933.386,754.034 931.552,755.034 930,756.5C 924.583,765.669 918.917,774.669 913,783.5C 912.333,789.167 912.333,794.833 913,800.5C 915.305,802.93 918.138,803.93 921.5,803.5C 921.5,805.167 921.5,806.833 921.5,808.5C 912.5,808.5 903.5,808.5 894.5,808.5C 894.5,806.833 894.5,805.167 894.5,803.5C 897.099,803.451 899.266,802.451 901,800.5C 901.667,794.833 901.667,789.167 901,783.5C 895.667,774.167 890.333,764.833 885,755.5C 882.772,753.887 880.272,753.22 877.5,753.5C 877.5,751.833 877.5,750.167 877.5,748.5 Z"/></g>
<g><path style="opacity:1" fill="#020202" d="M 476.5,753.5 C 488.668,752.173 495.835,757.506 498,769.5C 498.856,777.232 498.523,784.898 497,792.5C 491.521,803.806 483.021,806.639 471.5,801C 467.003,796.838 464.503,791.672 464,785.5C 462.989,778 463.655,770.667 466,763.5C 468.106,758.557 471.606,755.224 476.5,753.5 Z"/></g>
<g><path style="opacity:1" fill="#050505" d="M 657.5,754.5 C 671.908,752.41 678.075,758.41 676,772.5C 673.284,777.278 669.117,779.611 663.5,779.5C 661.488,779.16 659.488,778.827 657.5,778.5C 657.5,770.5 657.5,762.5 657.5,754.5 Z"/></g>
<g><path style="opacity:1" fill="#767676" d="M 214.5,751.5 C 215.486,755.97 215.819,760.637 215.5,765.5C 212.941,765.802 210.607,765.468 208.5,764.5C 210.5,764.5 212.5,764.5 214.5,764.5C 214.5,760.167 214.5,755.833 214.5,751.5 Z"/></g>
<g><path style="opacity:1" fill="#090909" d="M 744.5,781.5 C 739.695,782.487 734.695,782.821 729.5,782.5C 732.091,775.227 734.591,767.894 737,760.5C 739.993,767.311 742.493,774.311 744.5,781.5 Z"/></g>
<g><path style="opacity:1" fill="#c5c5c5" d="M 81.5,786.5 C 82.8333,786.5 84.1667,786.5 85.5,786.5C 85.6657,782.154 85.499,777.821 85,773.5C 84.0138,772.829 82.8471,772.829 81.5,773.5C 81.5,772.5 81.5,771.5 81.5,770.5C 83.1667,770.5 84.8333,770.5 86.5,770.5C 86.5,776.167 86.5,781.833 86.5,787.5C 84.5853,787.784 82.9187,787.451 81.5,786.5 Z"/></g>
<g><path style="opacity:1" fill="#656565" d="M 744.5,781.5 C 745.043,781.56 745.376,781.893 745.5,782.5C 740.014,783.815 734.68,783.815 729.5,782.5C 734.695,782.821 739.695,782.487 744.5,781.5 Z"/></g>
</svg>
